<svg viewBox="0 0 512 512" fill="none" xmlns="http://www.w3.org/2000/svg"><mask id="a" style="mask-type:alpha" maskUnits="userSpaceOnUse" x="0" y="0" width="512" height="512"><circle cx="256" cy="256" r="256" fill="#A570CC"/></mask><g mask="url(#a)"><path d="M512 256c0 141.38-114.62 256-256 256s-256-114.62-256-256 114.61-256 256-256c141.38 0 256 114.61 256 256Z" fill="#A570CC"/><path d="M101.3 501.76v-488.5h42.26v222.42h93.54l148.98-222.42h48.5l-153.82 227.97c21.25 5.54 39.95 16.16 56.12 31.87 16.17 15.7 30.26 36.03 42.27 60.98l82.46 167.68h-47.12l-68.6-144.13c-14.78-30.48-31.41-52.2-49.89-65.13-18.01-12.93-40.19-19.4-66.52-19.4h-85.92v228.66h-42.27Z" fill="#F9F7FF"/></g></svg>