<svg xmlns="http://www.w3.org/2000/svg"><style>:root svg:not(:target){display:none}</style><svg viewBox="0 0 33 34" fill="none" id="bem"><path d="M0 7.6h7.71v2.27h-7.71v-2.27Zm0-4.22h7.71v2.27h-7.71v-2.27Zm13.84 8.4h-13.84v2.27h13.32c1.46 0 4.87.03 6.13 2.08v-1.27c-.62-2.01-2.43-3.08-5.6-3.08Zm.03 4.21h-13.87v2.27h13.32c3.24 0 5.29.13 6.13.59v-1c-.65-1.6-3.37-1.86-5.58-1.86Zm-.03 10.7h-13.84v-2.27h13.32c1.46 0 4.87-.03 6.13-2.07v1.27c-.62 2-2.43 3.08-5.6 3.08Zm.03-4.21h-13.87v-2.27h13.32c3.24 0 5.29-.13 6.13-.58v1c-.65 1.59-3.37 1.85-5.58 1.85Zm8.95 8.14h10.18v-1.4h-9.89c-.87 0-2.95-.03-3.7-1.23v.78c.37 1.2 1.47 1.85 3.41 1.85Zm-.03-2.57h10.18v-1.39h-9.86c-1.97 0-3.2-.06-3.7-.36v.62c.4.97 2.05 1.13 3.38 1.13Z" fill="#000"></path></svg><svg viewBox="0 0 45 44" fill="none" id="certificate"><mask id="certificate_0" style="mask-type:alpha" maskUnits="userSpaceOnUse" x="0" y="0" width="45" height="44"><path fill="#D9D9D9" d="M.07 0h44v44h-44z"></path></mask><g mask="url(#certificate_0)"><path d="m20.15 23.95-2.98-2.94a1.31 1.31 0 0 0-.94-.4c-.38 0-.7.14-1 .42-.26.27-.39.6-.39.97 0 .38.13.7.4.97l3.75 3.74a1.59 1.59 0 0 0 2.32 0l7.6-7.6c.27-.27.4-.59.4-.95 0-.37-.14-.7-.4-.98a1.4 1.4 0 0 0-.99-.44c-.37 0-.7.13-.98.42l-6.8 6.8Zm-4.66 14.88-2.54-4.26-4.8-1.03c-.4-.08-.73-.3-.98-.65a1.61 1.61 0 0 1-.3-1.14l.48-4.93-3.26-3.73c-.28-.3-.43-.67-.43-1.09 0-.42.15-.79.43-1.09l3.26-3.73-.47-4.93c-.05-.41.05-.8.3-1.14.24-.36.57-.57.98-.65l4.8-1.03 2.53-4.26c.22-.37.52-.61.9-.75.38-.13.77-.1 1.16.06l4.52 1.92 4.52-1.92c.4-.17.78-.19 1.16-.06.38.14.68.38.9.75l2.54 4.26 4.8 1.03c.4.08.73.3.98.65.24.35.34.73.3 1.14l-.48 4.93 3.27 3.73c.28.3.42.67.42 1.09 0 .42-.14.79-.42 1.09l-3.27 3.73.47 4.93c.05.41-.05.8-.3 1.14-.24.36-.57.57-.98.65l-4.8 1.03-2.53 4.26a1.7 1.7 0 0 1-.9.75c-.38.13-.77.1-1.16-.06l-4.52-1.92-4.52 1.92c-.4.17-.78.19-1.16.06a1.68 1.68 0 0 1-.9-.75Zm1.9-2.25 4.68-1.99 4.73 1.98 2.6-4.4 5.05-1.15-.46-5.17 3.39-3.85-3.4-3.9.47-5.18-5.05-1.1-2.65-4.4-4.68 1.99-4.73-1.99-2.6 4.4-5.04 1.1.45 5.17-3.39 3.91 3.4 3.85-.46 5.22 5.04 1.1 2.66 4.4Z" fill="#BE87E6"></path></g></svg><svg viewBox="0 0 45 44" fill="none" id="close"><mask id="close_0" style="mask-type:alpha" maskUnits="userSpaceOnUse" x="0" y="0" width="45" height="44"><path fill="#D9D9D9" d="M.07 0h44v44h-44z"></path></mask><g mask="url(#close_0)"><path d="m22.07 24.57-8.98 8.98c-.34.34-.77.5-1.29.5-.51 0-.94-.16-1.28-.5-.33-.34-.5-.76-.5-1.28s.17-.95.5-1.29l8.98-8.98-8.98-8.98c-.33-.34-.5-.77-.5-1.29s.17-.94.5-1.28c.34-.34.77-.5 1.28-.5.52 0 .95.16 1.29.5l8.98 8.98 8.98-8.98c.34-.34.77-.5 1.29-.5a1.7 1.7 0 0 1 1.78 1.78c0 .52-.16.95-.5 1.29l-8.98 8.98 8.98 8.98c.34.34.5.77.5 1.29a1.72 1.72 0 0 1-1.78 1.78c-.52 0-.95-.16-1.29-.5l-8.98-8.98Z" fill="#BE87E6"></path></g></svg><svg viewBox="0 0 33 34" fill="none" id="css"><g clip-path="url(#css_0)"><path d="M2.06.5h28.88l-2.63 29.65-11.84 3.35-11.78-3.35-2.63-29.65Zm23.5 6.07h-18.12l.3 3.6h13.91l-.35 3.74h-9.13l.33 3.53h8.5l-.5 4.85-4 1.1-4.07-1.11-.25-2.9h-3.6l.4 5.3 7.52 2.34 7.39-2.1 1.67-18.35Z" fill="#1572B6"></path></g><defs><clipPath id="css_0"><path fill="#fff" transform="translate(0 .5)" d="M0 0h33v33h-33z"></path></clipPath></defs></svg><svg viewBox="0 0 45 44" fill="none" id="dark-mode"><mask id="dark-mode_0" style="mask-type:alpha" maskUnits="userSpaceOnUse" x="0" y="0" width="45" height="44"><path fill="#D9D9D9" d="M.07 0h44v44h-44z"></path></mask><g mask="url(#dark-mode_0)"><path d="M22.12 37.58c-4.34 0-8.02-1.5-11.05-4.53a15.04 15.04 0 0 1-4.53-11.05c0-3.62 1.12-6.83 3.36-9.65a15.19 15.19 0 0 1 8.95-5.44 1.63 1.63 0 0 1 1.73.55 1.6 1.6 0 0 1 .1 1.8 8.85 8.85 0 0 0-1.12 4.49c0 3 1.05 5.56 3.15 7.66a10.45 10.45 0 0 0 10.24 2.81c.83-.22 1.54-.49 2.16-.79a1.63 1.63 0 0 1 1.61.15c.23.15.4.36.5.63.12.26.13.57.04.93-.65 3.6-2.4 6.58-5.26 8.92a15.12 15.12 0 0 1-9.88 3.52Zm0-2.75a12.86 12.86 0 0 0 11.92-8.02c-.61.16-1.22.28-1.83.37a13.08 13.08 0 0 1-11.44-3.83 13.08 13.08 0 0 1-3.82-11.43c.09-.61.2-1.23.36-1.84a12.86 12.86 0 0 0-8.02 11.92c0 3.54 1.25 6.57 3.76 9.07a12.34 12.34 0 0 0 9.07 3.76Z" fill="#BE87E6"></path></g></svg><svg viewBox="0 0 45 44" fill="none" id="expand-circle"><mask id="expand-circle_0" style="mask-type:alpha" maskUnits="userSpaceOnUse" x="0" y="0" width="45" height="44"><path fill="#D9D9D9" d="M.07 0h44v44h-44z"></path></mask><g mask="url(#expand-circle_0)"><path d="m23.96 22-4.69 4.69c-.25.25-.38.56-.38.94 0 .38.13.7.38.97.27.29.6.43.98.42.38 0 .71-.14.98-.42l5.45-5.44a1.59 1.59 0 0 0 0-2.32l-5.48-5.47a1.3 1.3 0 0 0-.96-.4c-.37 0-.7.14-.97.43a1.4 1.4 0 0 0 .02 1.93l4.67 4.67Zm-1.89 17.42c-2.4 0-4.67-.46-6.79-1.37a17.6 17.6 0 0 1-5.53-3.73 17.59 17.59 0 0 1-3.72-5.53 16.95 16.95 0 0 1-1.38-6.79 17.6 17.6 0 0 1 5.1-12.32 17.58 17.58 0 0 1 5.53-3.72 16.95 16.95 0 0 1 6.79-1.38c2.4 0 4.67.46 6.8 1.37a17.6 17.6 0 0 1 5.52 3.73 17.59 17.59 0 0 1 3.73 5.53 16.95 16.95 0 0 1 1.37 6.79c0 2.4-.46 4.67-1.37 6.79a17.6 17.6 0 0 1-3.73 5.53 17.59 17.59 0 0 1-5.52 3.72 16.95 16.95 0 0 1-6.8 1.38Zm0-2.75c4.1 0 7.56-1.42 10.4-4.27a14.16 14.16 0 0 0 4.27-10.4c0-4.1-1.42-7.56-4.26-10.4a14.16 14.16 0 0 0-10.4-4.27c-4.1 0-7.57 1.42-10.41 4.27a14.16 14.16 0 0 0-4.27 10.4c0 4.1 1.43 7.56 4.27 10.4a14.16 14.16 0 0 0 10.4 4.27Z" fill="#BE87E6"></path></g></svg><svg viewBox="0 0 45 44" fill="none" id="external-link"><mask id="external-link_0" style="mask-type:alpha" maskUnits="userSpaceOnUse" x="2" y="2" width="41" height="40"><path fill="#D9D9D9" d="M2.07 2h40v40h-40z"></path></mask><g mask="url(#external-link_0)"><path d="M9.85 37c-.75 0-1.4-.28-1.95-.83a2.67 2.67 0 0 1-.83-1.95v-24.44c0-.75.28-1.4.83-1.95.55-.55 1.2-.83 1.95-.83h10.25c.4 0 .72.13.99.4s.4.6.4 1c0 .39-.13.72-.4.98-.27.27-.6.4-1 .4h-10.24v24.44h24.44v-10.25a1.37 1.37 0 0 1 1.4-1.39 1.37 1.37 0 0 1 1.39 1.4v10.24c0 .75-.28 1.4-.84 1.95-.55.55-1.2.83-1.95.83h-24.44Zm24.44-25.25-15.25 15.25c-.26.27-.59.4-.97.39-.38-.01-.7-.15-.97-.42s-.4-.59-.4-.97.13-.7.4-.97l15.25-15.25h-6.7c-.39 0-.72-.14-.98-.4-.27-.27-.4-.6-.4-1s.13-.72.4-.98c.26-.27.6-.4.98-.4h11.42v11.42c0 .39-.13.72-.4.99-.27.26-.6.4-1 .4a1.35 1.35 0 0 1-1.38-1.39v-6.67Z" fill="#BE87E6"></path></g></svg><svg viewBox="0 0 33 34" fill="none" id="git"><g clip-path="url(#git_0)"><path d="m32.38 15.53-14.41-14.4a2.13 2.13 0 0 0-3.01 0l-2.99 2.98 3.8 3.8a2.53 2.53 0 0 1 3.2 3.22l3.65 3.65a2.52 2.52 0 0 1 2.62 4.18 2.53 2.53 0 0 1-4.14-2.74l-3.42-3.4v8.97a2.53 2.53 0 1 1-2.91 4.05 2.52 2.52 0 0 1 .83-4.13v-9.06a2.52 2.52 0 0 1-1.37-3.31l-3.73-3.75-9.88 9.87a2.14 2.14 0 0 0 0 3.01l14.4 14.4c.84.84 2.18.84 3.01 0l14.35-14.33c.83-.83.83-2.18 0-3.01Z" fill="#F05032"></path></g><defs><clipPath id="git_0"><path fill="#fff" transform="translate(0 .5)" d="M0 0h33v33h-33z"></path></clipPath></defs></svg><svg viewBox="0 0 44 44" fill="none" id="github"><g clip-path="url(#github_0)"><path d="M22 .54a22 22 0 0 0-6.96 42.88c1.1.2 1.5-.48 1.5-1.06l-.02-3.74c-6.12 1.33-7.41-2.95-7.41-2.95-1-2.54-2.45-3.22-2.45-3.22-2-1.36.15-1.34.15-1.34 2.21.16 3.37 2.27 3.37 2.27 1.97 3.36 5.15 2.4 6.41 1.83.2-1.42.77-2.4 1.4-2.94-4.9-.55-10.03-2.45-10.03-10.88 0-2.4.86-4.36 2.27-5.9-.25-.55-1-2.79.2-5.82 0 0 1.83-.6 6.04 2.25a21.1 21.1 0 0 1 11 0c4.18-2.84 6.02-2.25 6.02-2.25a8.04 8.04 0 0 1 .22 5.82 8.52 8.52 0 0 1 2.26 5.9c0 8.46-5.14 10.32-10.04 10.86.77.66 1.49 2 1.49 4.07 0 2.94-.03 5.3-.03 6.02 0 .58.38 1.27 1.51 1.05a21.92 21.92 0 0 0 15.1-20.85 22 22 0 0 0-22-22Z" fill="#181717"></path></g><defs><clipPath id="github_0"><path fill="#fff" d="M0 0h44v44h-44z"></path></clipPath></defs></svg><svg viewBox="0 0 44 44" fill="none" id="gmail"><path d="M44 9.5v25.5a3 3 0 0 1-3 3h-7v-16.99l-12 9-12-9v17h-7a3 3 0 0 1-3-3v-25.5a4.5 4.5 0 0 1 7.2-3.6l2.8 2.1 12 9 12-9 2.8-2.1a4.5 4.5 0 0 1 7.2 3.6Z" fill="#BE87E6"></path></svg><svg viewBox="0 0 33 34" fill="none" id="gulp"><g clip-path="url(#gulp_0)"><path d="M8.16 6.95c-.46 0-.93.11-1.4.3-.46.2-.92.49-1.38.84-.48.38-.93.8-1.33 1.26a15.3 15.3 0 0 0-1.22 1.6 18.9 18.9 0 0 0-2.54 5.88 11.92 11.92 0 0 0-.29 2.14v.13c0 .36.05.73.1 1.07.1.36.25.7.43.99.2.29.44.53.74.7.3.2.65.3 1.07.3.36 0 .73-.09 1.12-.26a7.3 7.3 0 0 0 2.24-1.57c.28-.26.54-.54.8-.8l-.27.83c-.12.4-.25.79-.35 1.17a23 23 0 0 0-.3 1.02c-.07.3-.12.5-.12.62v.3c0 .33.03.56.14.71a.55.55 0 0 0 .46.2.6.6 0 0 0 .36-.12c.11-.08.2-.19.3-.3v-.01c.08-.12.16-.25.23-.39.07-.13.1-.26.15-.37l.1-.33.19-.68.26-.9.31-1.04.31-1.03a39.78 39.78 0 0 1 .5-1.58l.07-.21.02-.05.06.03.02-.07c.1-.3.21-.59.32-.86.1-.28.2-.55.28-.82.2-.57.31-1.17.3-1.78a.88.88 0 0 0-.06-.35.6.6 0 0 0-.17-.24.69.69 0 0 0-.24-.14.86.86 0 0 0-.78.13c-.18.12-.31.32-.41.58l-.76 2.43c-.12.25-.27.48-.43.7-.67.95-1.46 1.8-2.35 2.53-.29.23-.56.4-.83.55-.2.12-.45.2-.69.2a.66.66 0 0 1-.43-.14.88.88 0 0 1-.28-.38 2.18 2.18 0 0 1-.14-.53c-.02-.2-.04-.39-.04-.58 0-.57.1-1.2.28-1.92a18.13 18.13 0 0 1 3.09-6.2c.44-.55.88-.97 1.34-1.3.45-.34.85-.5 1.24-.5.24 0 .48.06.68.2.2.13.4.36.58.68.18.35.37.63.53.83.16.2.35.31.56.31a.7.7 0 0 0 .57-.29c.16-.19.23-.45.23-.76 0-.13-.01-.28-.04-.42a1.2 1.2 0 0 0-.2-.46 4.55 4.55 0 0 0-1.38-1.41c-.47-.28-1-.43-1.55-.44Zm15.07 1.18c-.2 0-.4.06-.56.16-.2.15-.36.36-.44.6l-2.6 6.54-.57 1.44-.62 1.58c-.1.24-.17.5-.24.75l-.35.3a4.7 4.7 0 0 1-.81.5c-.26.13-.47.18-.64.18-.11 0-.19-.03-.24-.08-.05-.04-.07-.11-.07-.22 0-.26.03-.54.11-.85a12.06 12.06 0 0 1 .68-1.89l.38-.88.29-.74c.06-.16.1-.34.12-.52a.98.98 0 0 0-.2-.6.65.65 0 0 0-.54-.26.64.64 0 0 0-.52.25 5.4 5.4 0 0 0-.63 1.32 14.23 14.23 0 0 1-.86 1.87c-.22.4-.48.8-.76 1.16-.29.36-.6.66-.93.9-.33.24-.68.36-1.03.36-.12 0-.2-.05-.23-.12a.65.65 0 0 1-.07-.31c0-.28.06-.58.15-.89a11.4 11.4 0 0 1 .7-1.77l.4-.77.34-.64c.1-.19.15-.34.19-.46a.83.83 0 0 0 .03-.2c0-.1-.02-.2-.07-.3a.72.72 0 0 0-.47-.32.9.9 0 0 0-.8.14c-.19.12-.32.32-.44.58a31.78 31.78 0 0 0-1.66 4.2c-.1.3-.18.63-.23.95l-.03.32c0 .3.04.56.13.76.1.2.2.37.34.5.14.12.31.21.5.26.18.05.37.08.56.08a3.44 3.44 0 0 0 2.16-.76 4.27 4.27 0 0 0 1.19-1.34c-.05.3-.1.6-.1.85 0 .45.08.78.27.98a.96.96 0 0 0 .72.3c.29 0 .6-.08.96-.24.34-.15.7-.36 1.05-.61.1-.06.18-.13.27-.2v.05c.04.18.1.34.2.49h.01a1.18 1.18 0 0 0 1.02.45c.35 0 .7-.08 1.08-.24a5.9 5.9 0 0 0 1.11-.66c.37-.27.75-.6 1.12-.96h.01l-.19.43-.92 2.02c-.32.69-.65 1.37-.95 2.05l-.14.39c-.05.12-.12.26-.16.4-.05.15-.1.28-.13.43-.04.15-.05.3-.05.43 0 .29.08.5.23.62a1.03 1.03 0 0 0 1 .05h.01a1.51 1.51 0 0 0 .63-.73c.09-.16.15-.33.22-.5v-.01l.11-.34.23-.6.26-.7.27-.72.24-.6.13-.35.11-.26.19-.43.22-.51.23-.52.2-.47.14-.31.42-.78c.17-.29.35-.56.54-.85l.64-.8c.22-.26.45-.48.69-.69.23-.19.47-.36.71-.47.22-.11.45-.17.69-.18.12 0 .2.03.24.06a.18.18 0 0 1 .06.14c0 .1-.06.28-.2.48-.14.22-.3.46-.51.72l-.7.82-.7.86c-.2.27-.4.54-.57.83-.14.23-.23.47-.28.73v.04c-.01.02-.02.02-.02.05v.08a1 1 0 0 0 .38.83c.25.21.6.3 1.05.3.48 0 .92-.09 1.33-.28.41-.18.83-.43 1.27-.76.43-.33.88-.71 1.36-1.16a63.6 63.6 0 0 1 1.63-1.48 1.43 1.43 0 0 0 .48-1.05.87.87 0 0 0-.11-.45.38.38 0 0 0-.34-.2.5.5 0 0 0-.23.06c-.07.03-.15.08-.23.14-.15.04.02.08.04.14-.74.67-1.38 1.22-1.89 1.66-.52.46-.96.81-1.3 1.09-.25.2-.52.39-.79.56a.95.95 0 0 1-.4.16c-.1 0-.18-.03-.21-.06a.2.2 0 0 1-.06-.15.3.3 0 0 1 .05-.1l.16-.2.55-.65.69-.82a10.45 10.45 0 0 0 1.23-1.9c.13-.32.21-.63.21-.92a1.15 1.15 0 0 0-.53-1 1.7 1.7 0 0 0-.51-.25c-.48-.13-.99-.1-1.44.1-.29.13-.56.28-.82.46a7.83 7.83 0 0 0-1.3 1.14l.05-.24.05-.29.01-.2a.73.73 0 0 0-.17-.52c-.12-.12-.3-.18-.55-.18-.17 0-.33.1-.47.27a3 3 0 0 0-.36.57c-.1.21-.2.44-.28.66l-.18.52-.2.67a.44.44 0 0 0-.06.02.45.45 0 0 0-.2.12h.01l-.55.53c-.2.2-.41.4-.63.59l-.68.56a8.83 8.83 0 0 1-1.22.8c-.13.07-.28.11-.43.12-.08 0-.11-.02-.13-.05a.43.43 0 0 1-.05-.22c0-.15.03-.33.09-.53l.18-.53.04-.04.51-1.31c.2-.5.4-1.03.64-1.59l.7-1.72.7-1.7.65-1.51.5-1.17c.09-.16.14-.3.2-.44.04-.13.07-.27.07-.4 0-.28-.09-.49-.25-.62a.83.83 0 0 0-.53-.18Z" fill="#CF4647"></path></g><defs><clipPath id="gulp_0"><path fill="#fff" transform="translate(0 .5)" d="M0 0h33v33h-33z"></path></clipPath></defs></svg><svg viewBox="0 0 33 34" fill="none" id="html"><g clip-path="url(#html_0)"><path d="M2.06.5h28.88l-2.63 29.65-11.84 3.35-11.78-3.35-2.63-29.65Zm9.67 13.4-.32-3.73h13.83l.32-3.6h-18.12l.96 11h12.55l-.45 4.72-4 1.1-4.06-1.11-.26-2.9h-3.59l.45 5.73 7.46 2 7.4-1.99 1.02-11.21h-13.19Z" fill="#E34F26"></path></g><defs><clipPath id="html_0"><path fill="#fff" transform="translate(0 .5)" d="M0 0h33v33h-33z"></path></clipPath></defs></svg><svg viewBox="0 0 33 34" fill="none" id="javascript"><g clip-path="url(#javascript_0)"><path d="M0 .5h33v33h-33v-33Zm30.3 25.13c-.24-1.5-1.22-2.77-4.13-3.95-1.01-.48-2.14-.8-2.47-1.57-.13-.45-.15-.7-.07-.97.21-.89 1.26-1.15 2.09-.9.53.16 1.03.57 1.34 1.23 1.42-.93 1.42-.93 2.41-1.54a5.67 5.67 0 0 0-.8-1.08c-.87-.97-2.02-1.46-3.9-1.42l-.97.12c-.93.23-1.82.73-2.35 1.39a4.31 4.31 0 0 0 .78 6.14c1.88 1.4 4.62 1.71 4.97 3.03.33 1.61-1.2 2.13-2.7 1.94-1.12-.24-1.73-.8-2.41-1.83l-2.52 1.44c.29.66.62.95 1.11 1.53 2.4 2.41 8.38 2.29 9.45-1.38.04-.13.33-.97.1-2.27l.07.09Zm-12.35-9.96h-3.1v7.98c0 1.7.08 3.25-.2 3.73-.45.94-1.62.82-2.15.66a2.65 2.65 0 0 1-1.14-1.18c-.09-.14-.15-.27-.18-.27l-2.5 1.55a4.86 4.86 0 0 0 1.81 2.08c1.18.7 2.76.93 4.41.56 1.08-.3 2-.95 2.5-1.94.7-1.28.55-2.84.54-4.6.02-2.82 0-5.65 0-8.5v-.07Z" fill="#F7DF1E"></path></g><defs><clipPath id="javascript_0"><path fill="#fff" transform="translate(0 .5)" d="M0 0h33v33h-33z"></path></clipPath></defs></svg><svg viewBox="0 0 45 44" fill="none" id="light-mode"><mask id="light-mode_0" style="mask-type:alpha" maskUnits="userSpaceOnUse" x="0" y="0" width="45" height="44"><path fill="#D9D9D9" d="M.07 0h44v44h-44z"></path></mask><g mask="url(#light-mode_0)"><path d="M20.54 5.5v-2.14a1.5 1.5 0 0 1 1.54-1.53 1.49 1.49 0 0 1 1.52 1.53v2.14a1.5 1.5 0 0 1-1.54 1.53 1.49 1.49 0 0 1-1.52-1.53Zm0 35.14v-2.14a1.5 1.5 0 0 1 1.54-1.53 1.48 1.48 0 0 1 1.52 1.53v2.14a1.5 1.5 0 0 1-1.54 1.53 1.49 1.49 0 0 1-1.52-1.53Zm20.17-17.11h-2.14a1.5 1.5 0 0 1-1.53-1.54 1.49 1.49 0 0 1 1.53-1.52h2.14a1.5 1.5 0 0 1 1.53 1.54 1.48 1.48 0 0 1-1.53 1.52Zm-35.14 0h-2.14a1.5 1.5 0 0 1-1.53-1.54 1.49 1.49 0 0 1 1.53-1.52h2.14a1.5 1.5 0 0 1 1.53 1.54 1.48 1.48 0 0 1-1.53 1.52Zm30.62-13.5-.95.95c-.3.3-.65.44-1.06.43a1.53 1.53 0 0 1-1.08-.47 1.5 1.5 0 0 1-.45-1.08c0-.42.14-.79.44-1.1l.93-.92c.3-.3.66-.46 1.09-.46.43 0 .8.15 1.1.46.3.3.45.67.44 1.1 0 .43-.16.8-.46 1.1Zm-25.1 25.17-.97.96c-.3.3-.65.46-1.07.45a1.54 1.54 0 0 1-1.08-.48c-.3-.3-.46-.67-.45-1.1 0-.43.16-.8.47-1.1l.91-.91c.29-.3.64-.45 1.07-.45.43 0 .8.16 1.1.46.3.3.45.66.45 1.08 0 .42-.14.78-.43 1.09Zm22.91.92-.94-.92a1.4 1.4 0 0 1-.43-1.08c0-.42.17-.78.47-1.09.3-.3.66-.45 1.08-.45.42 0 .79.14 1.1.44l.92.96c.3.3.46.65.46 1.07 0 .42-.15.78-.46 1.08-.3.3-.67.46-1.1.45-.42 0-.8-.16-1.1-.46Zm-25.1-25.17-.96-.93a1.4 1.4 0 0 1-.44-1.08c0-.43.16-.8.47-1.1.3-.3.67-.46 1.1-.45.43 0 .8.16 1.1.46l.92.95c.3.3.44.65.44 1.06 0 .42-.15.78-.46 1.08-.3.3-.65.44-1.08.45a1.5 1.5 0 0 1-1.09-.44Zm13.17 21.6c-2.93 0-5.42-1.03-7.47-3.08a10.18 10.18 0 0 1-3.07-7.48c0-2.93 1.03-5.41 3.08-7.46a10.18 10.18 0 0 1 7.47-3.07c2.93 0 5.42 1.02 7.46 3.07a10.18 10.18 0 0 1 3.07 7.48c0 2.93-1.02 5.41-3.07 7.46a10.18 10.18 0 0 1-7.47 3.07Zm0-3.06c2.09 0 3.86-.73 5.31-2.18a7.22 7.22 0 0 0 2.18-5.3c0-2.1-.73-3.87-2.18-5.32a7.22 7.22 0 0 0-5.3-2.18c-2.1 0-3.87.73-5.32 2.18a7.22 7.22 0 0 0-2.17 5.3c0 2.1.72 3.87 2.17 5.32a7.22 7.22 0 0 0 5.3 2.18Z" fill="#BE87E6"></path></g></svg><svg viewBox="0 0 45 44" fill="none" id="menu"><mask id="menu_0" style="mask-type:alpha" maskUnits="userSpaceOnUse" x="0" y="0" width="45" height="44"><path fill="#D9D9D9" d="M.07 0h44v44h-44z"></path></mask><g mask="url(#menu_0)"><path d="M7.86 32.33c-.39 0-.71-.13-.98-.4-.26-.26-.4-.59-.4-.98s.14-.71.4-.97c.27-.27.6-.4.98-.4h28.42c.39 0 .72.13.98.4.26.26.4.59.4.98a1.36 1.36 0 0 1-1.38 1.37h-28.42Zm0-8.95a1.36 1.36 0 0 1-1.38-1.38 1.38 1.38 0 0 1 1.38-1.38h28.42a1.36 1.36 0 0 1 1.38 1.38 1.36 1.36 0 0 1-1.38 1.38h-28.42Zm0-8.96c-.39 0-.71-.13-.98-.4-.26-.26-.4-.59-.4-.98a1.36 1.36 0 0 1 1.38-1.37h28.42c.39 0 .72.13.98.4.26.26.4.59.4.98s-.14.71-.4.97c-.26.27-.6.4-.98.4h-28.42Z" fill="#BE87E6"></path></g></svg><svg viewBox="0 0 45 44" fill="none" id="project"><mask id="project_0" style="mask-type:alpha" maskUnits="userSpaceOnUse" x="0" y="0" width="45" height="44"><path fill="#D9D9D9" d="M.07 0h44v44h-44z"></path></mask><g mask="url(#project_0)"><path d="m15.6 22 3.02-3.02c.27-.27.41-.6.42-.96 0-.36-.14-.69-.42-.97a1.35 1.35 0 0 0-.98-.43c-.37 0-.7.14-.98.43l-3.8 3.79a1.52 1.52 0 0 0-.46 1.16 1.52 1.52 0 0 0 .47 1.16l3.8 3.81a1.36 1.36 0 0 0 1.97 0 1.32 1.32 0 0 0 0-1.93l-3.04-3.04Zm12.94 0-3.03 3.04c-.28.27-.42.6-.42.96s.13.69.42.97a1.34 1.34 0 0 0 1.96 0l3.8-3.81a1.52 1.52 0 0 0 .48-1.16 1.52 1.52 0 0 0-.47-1.16l-3.81-3.81a1.36 1.36 0 0 0-1.5-.3c-.17.06-.33.16-.46.3a1.3 1.3 0 0 0 0 1.93l3.03 3.04Zm-18.74 15.58a3.2 3.2 0 0 1-2.35-.96 3.2 3.2 0 0 1-.96-2.35v-24.54c0-.93.32-1.7.96-2.35a3.2 3.2 0 0 1 2.35-.96h24.54c.93 0 1.71.32 2.35.96.64.64.96 1.42.96 2.35v24.54a3.2 3.2 0 0 1-.96 2.35 3.2 3.2 0 0 1-2.35.96h-24.54Zm0-2.75h24.54c.14 0 .27-.06.39-.17a.54.54 0 0 0 .17-.4v-24.53a.54.54 0 0 0-.17-.39.54.54 0 0 0-.39-.17h-24.54a.54.54 0 0 0-.39.17.54.54 0 0 0-.17.4v24.53c0 .14.06.27.17.39.12.11.25.17.4.17Z" fill="#BE87E6"></path></g></svg><svg viewBox="0 0 33 34" fill="none" id="sass"><g clip-path="url(#sass_0)"><path d="M16.5.5a16.5 16.5 0 1 1 0 33 16.5 16.5 0 0 1 0-33Zm-3.28 22a4.2 4.2 0 0 1-.03 2.46l-.1.25a4.63 4.63 0 0 1-.87 1.36c-.95 1.04-2.3 1.43-2.87 1.1-.61-.36-.3-1.83.8-3.01 1.2-1.26 2.92-2.07 2.92-2.07l.15-.1Zm13.63-14.94c-.75-2.93-5.6-3.9-10.2-2.26-2.74.97-5.7 2.5-7.83 4.5-2.54 2.36-2.94 4.42-2.78 5.28.6 3.04 4.76 5.03 6.47 6.5v.02c-.5.24-4.2 2.1-5.07 4.02-.93 2.02.15 3.46.85 3.65 2.16.6 4.4-.5 5.59-2.27a5.7 5.7 0 0 0 .55-5.05 6.41 6.41 0 0 1 2.52-.15c2.89.33 3.47 2.15 3.34 2.9a1.98 1.98 0 0 1-.93 1.29c-.2.12-.26.16-.24.25.02.12.12.12.28.1a2.28 2.28 0 0 0 1.57-2.02c.06-1.77-1.63-3.75-4.64-3.71a7.44 7.44 0 0 0-2.58.35.5.5 0 0 0-.14-.15c-1.86-2-5.3-3.4-5.16-6.06.04-.97.4-3.53 6.6-6.62 5.1-2.54 9.16-1.83 9.86-.29 1.01 2.2-2.16 6.31-7.46 6.91-2.03.23-3.08-.55-3.35-.85-.28-.3-.33-.33-.43-.26-.16.08-.06.35 0 .51.17.42.8 1.14 1.92 1.5.97.32 3.34.5 6.19-.6 3.2-1.25 5.69-4.7 4.97-7.58l.1.1Z" fill="#C69"></path></g><defs><clipPath id="sass_0"><path fill="#fff" transform="translate(0 .5)" d="M0 0h33v33h-33z"></path></clipPath></defs></svg><svg viewBox="0 0 44 44" fill="none" id="telegram"><g clip-path="url(#telegram_0)"><path d="M21.9 0a22 22 0 1 0 .2 44 22 22 0 0 0-.2-44Zm9.1 13.24c.18 0 .58.05.85.26.17.15.28.37.31.6.03.17.07.56.04.86a258.96 258.96 0 0 1-2.5 15.82c-.3 1.65-.91 2.2-1.5 2.25-1.28.12-2.25-.84-3.48-1.65-1.94-1.27-3.03-2.06-4.91-3.3-2.18-1.43-.77-2.22.47-3.5.32-.34 5.95-5.46 6.06-5.92.02-.06.03-.28-.1-.4-.13-.1-.32-.07-.46-.04-.19.05-3.28 2.1-9.27 6.14-.88.6-1.68.9-2.4.88-.78-.02-2.29-.45-3.41-.81-1.38-.45-2.47-.69-2.38-1.45.05-.4.6-.8 1.64-1.21 6.41-2.8 10.69-4.64 12.83-5.53 6.1-2.54 7.38-2.98 8.2-3Z" fill="#BE87E6"></path></g><defs><clipPath id="telegram_0"><path fill="#fff" d="M0 0h44v44h-44z"></path></clipPath></defs></svg><svg viewBox="0 0 33 34" fill="none" id="webpack"><g clip-path="url(#webpack_0)"><path d="m30.52 25.93-13.43 7.57v-5.9l8.37-4.58 5.06 2.91Zm.92-.82v-15.83l-4.91 2.83v10.17l4.91 2.83Zm-28.96.82 13.43 7.57v-5.9l-8.37-4.58-5.06 2.91Zm-.92-.82v-15.83l4.91 2.83v10.17l-4.91 2.83Zm.57-16.85 13.78-7.76v5.7l-8.83 4.83-.06.04-4.89-2.81Zm28.74 0-13.78-7.76v5.7l8.83 4.83.06.04 4.89-2.81Zm-14.96 18-8.26-4.51v-8.96l8.26 4.75v8.73Zm1.18 0 8.26-4.51v-8.96l-8.26 4.75v8.73Zm-8.88-14.5 8.3-4.55 8.28 4.54-8.29 4.77-8.29-4.77Z" fill="#8DD6F9"></path></g><defs><clipPath id="webpack_0"><path fill="#fff" transform="translate(0 .5)" d="M0 0h33v33h-33z"></path></clipPath></defs></svg><svg viewBox="0 0 44 44" fill="none" id="whatsapp"><g clip-path="url(#whatsapp_0)"><path d="M32.03 26.37a92.15 92.15 0 0 0-3.72-1.78c-.5-.18-.86-.27-1.23.28a31.4 31.4 0 0 1-1.72 2.13c-.32.37-.64.41-1.18.14-.55-.27-2.3-.85-4.38-2.7a16.4 16.4 0 0 1-3.03-3.78c-.32-.54-.04-.84.23-1.1.25-.25.55-.65.82-.96.27-.32.36-.55.55-.91.18-.37.09-.68-.05-.96-.14-.27-1.22-2.95-1.68-4.04-.44-1.06-.89-.92-1.22-.94l-1.05-.02a2 2 0 0 0-1.45.69c-.5.54-1.9 1.86-1.9 4.54 0 2.68 1.95 5.27 2.22 5.64.27.36 3.84 5.86 9.3 8.22 1.3.56 2.32.9 3.11 1.15 1.3.41 2.5.36 3.43.21 1.05-.15 3.22-1.31 3.68-2.59.45-1.27.45-2.36.32-2.59-.14-.22-.5-.36-1.05-.63Zm-9.94 13.57a18.1 18.1 0 0 1-9.23-2.53l-.66-.39-6.86 1.8 1.83-6.69-.43-.68a18.15 18.15 0 0 1 15.36-27.76 18 18 0 0 1 12.81 5.3 18.01 18.01 0 0 1 5.3 12.83c0 9.99-8.13 18.12-18.12 18.12Zm15.43-33.55a21.66 21.66 0 0 0-15.43-6.39 21.83 21.83 0 0 0-18.9 32.7l-3.09 11.3 11.56-3.03a21.78 21.78 0 0 0 10.42 2.65h.01a21.84 21.84 0 0 0 15.43-37.23Z" fill="#BE87E6"></path></g><defs><clipPath id="whatsapp_0"><path fill="#fff" d="M0 0h44v44h-44z"></path></clipPath></defs></svg></svg>