<svg viewBox="0 0 44 44" fill="none" xmlns="http://www.w3.org/2000/svg"><mask id="a" style="mask-type:alpha" maskUnits="userSpaceOnUse" x="0" y="0" width="44" height="44"><path fill="#D9D9D9" d="M0 0h44v44h-44z"/></mask><g mask="url(#a)"><path d="M34.53 34.56c.87 0 1.62-.31 2.23-.92.62-.62.92-1.36.92-2.23a3 3 0 0 0-.92-2.23 3.05 3.05 0 0 0-2.23-.92c-.88 0-1.63.3-2.24.92a3.03 3.03 0 0 0-.92 2.23c0 .87.3 1.61.92 2.23.61.6 1.36.92 2.24.92Zm0 6.3a6.33 6.33 0 0 0 5.21-2.78 9.4 9.4 0 0 0-2.53-1.09 10.66 10.66 0 0 0-5.37 0 9.4 9.4 0 0 0-2.52 1.08 6.33 6.33 0 0 0 5.2 2.78Zm-26.72-1.18a3.67 3.67 0 0 1-2.7-1.11 3.65 3.65 0 0 1-1.11-2.68v-28.1c0-1.04.37-1.93 1.12-2.68a3.67 3.67 0 0 1 2.69-1.11h28.17a3.7 3.7 0 0 1 2.7 1.11 3.65 3.65 0 0 1 1.1 2.68v10.62a1.53 1.53 0 0 1-1.58 1.57 1.55 1.55 0 0 1-1.57-1.57v-10.62a.62.62 0 0 0-.2-.44.62.62 0 0 0-.45-.2h-28.17a.62.62 0 0 0-.45.2.62.62 0 0 0-.2.44v28.1c0 .16.07.3.2.44.14.14.28.2.45.2h10.64c.45 0 .83.15 1.13.46.3.3.45.67.45 1.12a1.53 1.53 0 0 1-1.58 1.57h-10.64Zm-.65-3.15v-29.38 13-.17 16.55Zm4.73-6.54a1.56 1.56 0 0 0 1.58 1.58h5.3a1.54 1.54 0 0 0 1.58-1.58 1.53 1.53 0 0 0-1.58-1.57h-5.3c-.44 0-.82.15-1.12.45-.3.3-.46.68-.46 1.12Zm0-8.15c0 .45.16.82.46 1.12.3.3.68.45 1.12.45h12.09c.45 0 .82-.15 1.12-.45.3-.3.46-.67.46-1.12 0-.45-.15-.82-.46-1.12-.3-.3-.67-.45-1.12-.45h-12.09c-.44 0-.82.15-1.12.45-.3.3-.46.68-.46 1.12Zm0-8.15c0 .44.16.82.46 1.12.3.3.68.45 1.12.45h16.85a1.53 1.53 0 0 0 1.57-1.57 1.53 1.53 0 0 0-1.58-1.57h-16.84c-.44 0-.82.14-1.12.45-.3.3-.46.67-.46 1.12Zm22.64 30.31a9.15 9.15 0 0 1-6.71-2.76 9.1 9.1 0 0 1-2.77-6.68 9.1 9.1 0 0 1 2.77-6.7 9.15 9.15 0 0 1 6.7-2.75c2.64 0 4.87.92 6.71 2.76a9.1 9.1 0 0 1 2.77 6.69 9.1 9.1 0 0 1-2.77 6.68 9.15 9.15 0 0 1-6.7 2.76Z" fill="#A570CC"/></g></svg>