<svg viewBox="0 0 45 44" fill="none" xmlns="http://www.w3.org/2000/svg"><mask id="a" style="mask-type:alpha" maskUnits="userSpaceOnUse" x="0" y="0" width="45" height="44"><path fill="#D9D9D9" d="M.07 0h44v44h-44z"/></mask><g mask="url(#a)"><path d="M22.12 37.58c-4.34 0-8.02-1.5-11.05-4.53a15.04 15.04 0 0 1-4.53-11.05c0-3.62 1.12-6.83 3.36-9.65a15.19 15.19 0 0 1 8.95-5.44 1.63 1.63 0 0 1 1.73.55 1.6 1.6 0 0 1 .1 1.8 8.85 8.85 0 0 0-1.12 4.49c0 3 1.05 5.56 3.15 7.66a10.45 10.45 0 0 0 10.24 2.81c.83-.22 1.54-.49 2.16-.79a1.63 1.63 0 0 1 1.61.15c.23.15.4.36.5.63.12.26.13.57.04.93-.65 3.6-2.4 6.58-5.26 8.92a15.12 15.12 0 0 1-9.88 3.52Zm0-2.75a12.86 12.86 0 0 0 11.92-8.02c-.61.16-1.22.28-1.83.37a13.08 13.08 0 0 1-11.44-3.83 13.08 13.08 0 0 1-3.82-11.43c.09-.61.2-1.23.36-1.84a12.86 12.86 0 0 0-8.02 11.92c0 3.54 1.25 6.57 3.76 9.07a12.34 12.34 0 0 0 9.07 3.76Z" fill="#BE87E6"/></g></svg>