<svg viewBox="0 0 45 44" fill="none" xmlns="http://www.w3.org/2000/svg"><mask id="a" style="mask-type:alpha" maskUnits="userSpaceOnUse" x="2" y="2" width="41" height="40"><path fill="#D9D9D9" d="M2.07 2h40v40h-40z"/></mask><g mask="url(#a)"><path d="M9.85 37c-.75 0-1.4-.28-1.95-.83a2.67 2.67 0 0 1-.83-1.95v-24.44c0-.75.28-1.4.83-1.95.55-.55 1.2-.83 1.95-.83h10.25c.4 0 .72.13.99.4s.4.6.4 1c0 .39-.13.72-.4.98-.27.27-.6.4-1 .4h-10.24v24.44h24.44v-10.25a1.37 1.37 0 0 1 1.4-1.39 1.37 1.37 0 0 1 1.39 1.4v10.24c0 .75-.28 1.4-.84 1.95-.55.55-1.2.83-1.95.83h-24.44Zm24.44-25.25-15.25 15.25c-.26.27-.59.4-.97.39-.38-.01-.7-.15-.97-.42s-.4-.59-.4-.97.13-.7.4-.97l15.25-15.25h-6.7c-.39 0-.72-.14-.98-.4-.27-.27-.4-.6-.4-1s.13-.72.4-.98c.26-.27.6-.4.98-.4h11.42v11.42c0 .39-.13.72-.4.99-.27.26-.6.4-1 .4a1.35 1.35 0 0 1-1.38-1.39v-6.67Z" fill="#BE87E6"/></g></svg>