<svg viewBox="0 0 24 24" xmlns="http://www.w3.org/2000/svg"><path fill="#0769AD" d="M1.52 5.87c-2.12 3.05-1.86 7.03-.23 10.27.03.08.08.15.12.23l.07.15.05.08.08.15.16.27c.03.05.05.1.09.14.05.1.12.2.18.29l.07.11a6.37 6.37 0 0 0 .31.45l.24.31.1.12.21.27.08.1.31.35a3.13 3.13 0 0 0 .43.44l.25.25.1.1.34.3.06.06.3.26.13.1.26.2.14.1.29.21.1.08.03.02.28.18.12.08a22.01 22.01 0 0 0 .9.53l.18.09.23.13a.32.32 0 0 1 .06.02l.1.05.37.17.08.03.43.19a24.91 24.91 0 0 0 .52.2h.05l.46.16c.04 0 .07.02.11.03l.48.14c10.27 1.87 13.25-6.18 13.25-6.18-2.5 3.27-6.95 4.13-11.17 3.17l-.47-.13a13.54 13.54 0 0 1-.57-.19l-.06-.02-.4-.15a1.61 1.61 0 0 0-.1-.04l-.44-.18-.09-.04a23.44 23.44 0 0 1-.36-.17 1.49 1.49 0 0 1-.1-.05l-.29-.14a3.95 3.95 0 0 1-.18-.1l-.34-.19-.12-.06a15.92 15.92 0 0 1-.44-.27 2.1 2.1 0 0 1-.11-.08 6.01 6.01 0 0 1-.32-.2l-.1-.08a9.55 9.55 0 0 1-.3-.21l-.13-.1-.26-.21-.12-.1a10.6 10.6 0 0 1-.33-.27.26.26 0 0 0-.04-.04l-.35-.31-.1-.1-.25-.24-.1-.1a9.08 9.08 0 0 1-.3-.32l-.02-.02-.31-.36-.08-.1-.23-.27a21.27 21.27 0 0 1-.34-.45c-2.34-3.19-3.18-7.6-1.31-11.2m4.94-.48c-1.54 2.2-1.45 5.17-.25 7.5a9.11 9.11 0 0 0 .67 1.14c.23.33.49.72.8.99l.34.36.1.09.34.32.02.01a9.87 9.87 0 0 0 .41.35l.1.07.42.32h.02l.2.14.09.06.32.2a4.83 4.83 0 0 0 .33.18l.1.05.2.1.02.01.41.2c.04 0 .07.02.1.03l.33.14.14.05.31.1.14.05c.15.05.3.1.45.13 7.93 1.32 9.77-4.8 9.77-4.8-1.65 2.39-4.85 3.52-8.26 2.64a8.04 8.04 0 0 1-.45-.13l-.14-.05-.3-.1-.15-.06-.34-.14-.09-.03-.42-.2-.2-.1-.12-.06a5.67 5.67 0 0 1-.27-.15.62.62 0 0 1-.06-.04l-.32-.2-.1-.06-.2-.13-.43-.32-.1-.08a9.52 9.52 0 0 1-3.24-4.61 7.18 7.18 0 0 1 .56-5.75m4.3-.15c-.91 1.34-1 3-.37 4.46a6.29 6.29 0 0 0 3.6 3.37l.2.07.09.03.28.08c4.38.85 5.57-2.25 5.88-2.7-1.04 1.5-2.79 1.86-4.93 1.33a4.85 4.85 0 0 1-.52-.16 6.35 6.35 0 0 1-.62-.25 6.53 6.53 0 0 1-1.08-.66c-1.92-1.46-3.11-4.24-1.86-6.5"/></svg>