<svg viewBox="0 0 24 24" xmlns="http://www.w3.org/2000/svg"><path fill="#A86454" d="M12.1 4.64c-2.07 0-3.69.2-4.93.57a6.45 6.45 0 0 0 .1-.09c.03-.04-.06-.06-.23-.07a7.21 7.21 0 0 0-3 .7c-1.27.6-4.11 3.75-4.04 3.94.08.19 1.46 1.35 1.87 1.8.26.3 1.05 2.95 1.76 2.5.2-.13.27-.65.33-1.29.06.5.12 1.02.2 1.48.1.75 1.08 1.35 1.2 2.06.13 1.02.76 1.73 1.98 2.18.48.66 1.23.33 1.8.63.9.49 1.9.26 2.92.26 1 0 1.98.19 2.92-.3.57-.3 1.32.03 1.8-.58 1.23-.45 1.84-1.16 1.98-2.19.11-.71 1.05-1.3 1.16-2.06l.16-1.2c.05.5.13.9.29 1.02.67.44 1.5-2.21 1.76-2.51.4-.45 1.8-1.61 1.87-1.8.07-.19-2.8-3.33-4.08-3.93a7.21 7.21 0 0 0-3-.7c-.16 0-.24.02-.22.06a18.4 18.4 0 0 0-4.6-.48zm.02.5c2.2 0 3.85.22 5.01.61l.36.15a8.25 8.25 0 0 1 2.02 3.11l.06.25v.01c.04.77.31 1.42.23 2-.15.99-.23 1.96-.37 2.83-.03.2-.22.49-.48.82-.27.33-.6.7-.69 1.24v.01c-.1.74-.42 1.2-1.17 1.59.13-.45.2-1.06.2-1.97.04-1.12.08-1.57-.85-2.7a5.53 5.53 0 0 0-2.8-1.9c-.1-.38-.72-.83-1.55-.83-.82 0-1.41.42-1.53.82a5.53 5.53 0 0 0-2.85 1.92c-.93 1.12-.86 1.6-.86 2.7 0 .9.08 1.5.2 1.95-.76-.38-1.1-.85-1.2-1.58-.09-.56-.44-.93-.7-1.26a2.2 2.2 0 0 1-.5-.8c-.14-.88-.22-1.85-.37-2.85-.09-.57.18-1.22.23-1.99v.02l.02-.37a7.92 7.92 0 0 1 1.8-2.88 6.41 6.41 0 0 1 .73-.29c1.2-.39 2.86-.61 5.06-.61zm-5.2 3.8a1.65 1.65 0 0 0-1.64 1.65 1.65 1.65 0 0 0 1.65 1.65 1.65 1.65 0 0 0 .44-.06c.35-.38.72-.73 1.11-1.05a1.65 1.65 0 0 0 .1-.54 1.65 1.65 0 0 0-1.65-1.65 1.65 1.65 0 0 0-.02 0zm10.3 0a1.65 1.65 0 0 0-1.65 1.65 1.65 1.65 0 0 0 .15.68c.32.27.62.55.9.85a1.65 1.65 0 0 0 .6.12 1.65 1.65 0 0 0 1.65-1.65 1.65 1.65 0 0 0-1.65-1.65zm-9.88.49a.41.41 0 0 1 .41.4.41.41 0 0 1-.41.42.41.41 0 0 1-.41-.41.41.41 0 0 1 .41-.41zm9.47 0a.41.41 0 0 1 .41.4.41.41 0 0 1-.4.42.41.41 0 0 1-.42-.41.41.41 0 0 1 .41-.41zm-5.1 1.48a.15.3 17.23 0 1 .02 0 .15.3 17.23 0 1 .06.34.15.3 17.23 0 1-.24.24.15.3 17.23 0 1-.05-.33.15.3 17.23 0 1 .2-.25zm.66.02a.3.15 75.54 0 1 .2.26.3.15 75.54 0 1-.06.33.3.15 75.54 0 1-.22-.26.3.15 75.54 0 1 .07-.32.3.15 75.54 0 1 .01 0zm-.31.48s.03.23.18.3c.15.08.86-.15.86-.15-.33.26-.97.26-.97.34v.37c0 .41.03 1.46-.03 1.69.82 0 2.09 1.12 2.09 2.5v.08c-.04-1.35-1.61-2.43-2.1-2.43-.48 0-2.06 1.05-2.1 2.43v-.07c0-1.37 1.24-2.47 2.06-2.51-.07-.55-.07-1.14-.07-1.69v-.37a5.1 5.1 0 0 0-.66-.24c.19.04.38.05.55.05.15-.07.19-.3.19-.3zm-3.04 1.35a.15.15 0 0 1 .15.15.15.15 0 0 1-.15.15.15.15 0 0 1-.15-.15.15.15 0 0 1 .15-.15zm1.12 0a.15.15 0 0 1 .16.15.15.15 0 0 1-.15.15.15.15 0 0 1-.15-.15.15.15 0 0 1 .14-.15zm3.67 0a.15.15 0 0 1 .16.15.15.15 0 0 1-.15.15.15.15 0 0 1-.15-.15.15.15 0 0 1 .14-.15zm1.12 0a.15.15 0 0 1 .01 0 .15.15 0 0 1 .15.15.15.15 0 0 1-.15.15.15.15 0 0 1-.15-.15.15.15 0 0 1 .14-.15zm-5.65.9a.15.15 0 0 1 .16.15.15.15 0 0 1-.15.15.15.15 0 0 1-.15-.15.15.15 0 0 1 .14-.15zm5.39 0a.15.15 0 0 1 .16.15.15.15 0 0 1-.15.15.15.15 0 0 1-.15-.15.15.15 0 0 1 .14-.15Z"/></svg>