<svg viewBox="0 0 24 24" xmlns="http://www.w3.org/2000/svg"><path d="M14.23 12a2.24 2.24 0 0 1-2.23 2.24 2.24 2.24 0 0 1-2.24-2.24 2.24 2.24 0 0 1 2.23-2.23 2.24 2.24 0 0 1 2.24 2.23zm2.65-10.69c-1.35 0-3.1.96-4.89 2.63-1.78-1.66-3.54-2.6-4.89-2.6-.4 0-.78.09-1.1.27-1.38.8-1.69 3.27-.98 6.37-3.04.94-5.02 2.44-5.02 4.02 0 1.6 1.99 3.1 5.04 4.03-.7 3.12-.39 5.6 1 6.38.31.2.68.28 1.1.28 1.34 0 3.1-.96 4.88-2.63 1.78 1.66 3.54 2.6 4.89 2.6.4 0 .78-.08 1.1-.27 1.38-.79 1.69-3.26.98-6.36 3.03-.93 5.01-2.44 5.01-4.03 0-1.59-1.99-3.1-5.04-4.03.7-3.1.39-5.58-1-6.38a2.17 2.17 0 0 0-1.08-.28zm0 1.1c.22 0 .4.04.55.13.67.38.96 1.83.73 3.7-.05.46-.14.95-.25 1.44-.96-.24-2-.42-3.1-.53a23.9 23.9 0 0 0-2.04-2.45c1.6-1.48 3.09-2.3 4.1-2.3zm-9.78.01c1.02 0 2.52.81 4.11 2.28a23 23 0 0 0-2.02 2.45c-1.1.11-2.15.3-3.11.53-.11-.49-.2-.96-.25-1.42-.23-1.86.05-3.32.71-3.7.19-.1.4-.13.56-.13zm4.89 3.05c.45.47.9 1 1.36 1.57a29.62 29.62 0 0 0-2.71 0 19 19 0 0 1 1.34-1.57zm.01 2.63c.74 0 1.48.03 2.2.1a26.4 26.4 0 0 1 2.2 3.8 27.17 27.17 0 0 1-2.19 3.82 25.64 25.64 0 0 1-4.41 0 26.64 26.64 0 0 1-2.2-3.8 25.17 25.17 0 0 1 2.19-3.82c.73-.07 1.47-.1 2.21-.1zm-3.63.25a25.52 25.52 0 0 0-1.34 2.34 20.7 20.7 0 0 1-.68-1.95c.64-.15 1.32-.28 2.02-.39zm7.26 0a22 22 0 0 1 2 .4c-.18.62-.4 1.27-.66 1.92a23.05 23.05 0 0 0-1.34-2.32zm3.06.68c.48.15.94.32 1.37.5 1.74.74 2.85 1.7 2.85 2.47 0 .77-1.12 1.74-2.85 2.48-.42.18-.88.34-1.36.5-.28-.97-.64-1.97-1.1-2.99.45-1.02.81-2 1.09-2.96zm-13.4 0c.28.96.65 1.96 1.1 2.98a23.14 23.14 0 0 0-1.08 2.97 14.2 14.2 0 0 1-1.37-.5c-1.74-.74-2.86-1.7-2.86-2.48 0-.76 1.12-1.74 2.86-2.47.42-.18.88-.34 1.35-.5zm11.68 4.28c.27.66.5 1.31.68 1.95-.64.16-1.32.3-2.02.4a25.82 25.82 0 0 0 1.34-2.35zm-9.94.02a22.65 22.65 0 0 0 1.34 2.32 22 22 0 0 1-2-.39 22 22 0 0 1 .65-1.93zm10.89 2.99c.11.5.2.97.25 1.42.23 1.87-.05 3.32-.71 3.71a1 1 0 0 1-.56.13c-1.01 0-2.52-.8-4.11-2.28.68-.72 1.37-1.54 2.02-2.44 1.1-.12 2.15-.3 3.11-.54zm-11.83.01c.96.23 2 .42 3.1.53.67.9 1.35 1.73 2.04 2.45-1.6 1.48-3.09 2.3-4.1 2.3a1.28 1.28 0 0 1-.56-.14c-.67-.38-.96-1.83-.73-3.7.05-.46.14-.95.25-1.44zm4.56.64a29.62 29.62 0 0 0 2.7 0c-.43.57-.89 1.1-1.34 1.57-.45-.47-.91-1-1.36-1.57z" fill="#61DAFB"/></svg>