<svg fill="none" viewBox="0 0 128 128" xmlns="http://www.w3.org/2000/svg"><rect fill="#3178c6" height="128" rx="6" width="128"/><path clip-rule="evenodd" d="M74.26 99.47v14.02a29.57 29.57 0 0 0 8.06 2.63c3.1.59 6.38.88 9.82.88 3.35 0 6.53-.32 9.54-.96a23.5 23.5 0 0 0 7.94-3.18 16.18 16.18 0 0 0 5.4-5.79c1.32-2.38 1.98-5.32 1.98-8.83a18 18 0 0 0-1.14-6.68 15.63 15.63 0 0 0-3.27-5.11 24.01 24.01 0 0 0-5.14-4.01c-2-1.18-4.24-2.3-6.75-3.35a84.76 84.76 0 0 1-4.94-2.22 25.02 25.02 0 0 1-3.71-2.19 9.54 9.54 0 0 1-2.36-2.36 5 5 0 0 1-.83-2.83c0-.97.25-1.84.74-2.61s1.2-1.44 2.1-2c.9-.55 2-.98 3.32-1.29a19.2 19.2 0 0 1 4.37-.46 27.6 27.6 0 0 1 7.6 1.08c1.31.36 2.59.82 3.83 1.38a20.7 20.7 0 0 1 3.43 1.93v-13.1c-2.13-.83-4.45-1.43-6.97-1.83s-5.41-.59-8.68-.59c-3.32 0-6.46.36-9.44 1.07a23.97 23.97 0 0 0-7.84 3.36 16.73 16.73 0 0 0-5.35 5.8 17.07 17.07 0 0 0-1.97 8.44c0 4.18 1.2 7.74 3.6 10.7 2.4 2.95 6.06 5.45 10.95 7.5 1.92.78 3.72 1.55 5.38 2.31 1.66.76 3.1 1.55 4.3 2.37s2.16 1.71 2.86 2.67a5.45 5.45 0 0 1 .4 5.81 5.83 5.83 0 0 1-2 2.02 11 11 0 0 1-3.31 1.34c-1.33.32-2.88.48-4.66.48a26.84 26.84 0 0 1-17.26-6.4zm-23.56-34.92h18.3v-11.55h-51v11.55h18.2v51.45h14.5z" fill="#fff" fill-rule="evenodd"/></svg>