<svg viewBox="0 0 410 404" fill="none" xmlns="http://www.w3.org/2000/svg"><path d="m399.64 59.52-184 329.02a10 10 0 0 1-17.41.08l-187.65-329.06a10 10 0 0 1 10.45-14.8l184.2 32.92a10 10 0 0 0 3.55 0l180.34-32.87a10 10 0 0 1 10.52 14.71Z" fill="url(#a)"/><path d="m292.96 1.57-136.16 26.69a5 5 0 0 0-4.03 4.6l-8.38 141.47a5 5 0 0 0 6.12 5.17l37.91-8.75a5 5 0 0 1 6.02 5.87l-11.26 55.16a5 5 0 0 0 6.35 5.78l23.42-7.11a5 5 0 0 1 6.35 5.8l-17.9 86.63c-1.12 5.41 6.09 8.37 9.1 3.72l2-3.1 110.95-221.43a5 5 0 0 0-5.41-7.15l-39.03 7.53a5 5 0 0 1-5.75-6.3l25.47-88.28a5 5 0 0 0-5.77-6.3Z" fill="url(#b)"/><defs><linearGradient id="a" x1="6" y1="33" x2="235" y2="344" gradientUnits="userSpaceOnUse"><stop stop-color="#41D1FF"/><stop offset="1" stop-color="#BD34FE"/></linearGradient><linearGradient id="b" x1="194.651" y1="8.818" x2="236.076" y2="292.989" gradientUnits="userSpaceOnUse"><stop stop-color="#FFEA83"/><stop offset=".083" stop-color="#FFDD35"/><stop offset="1" stop-color="#FFA800"/></linearGradient></defs></svg>